<svg xmlns="http://www.w3.org/2000/svg" xmlns:svg="http://www.w3.org/2000/svg" xmlns:xlink="http://www.w3.org/1999/xlink" id="svg2" width="16" height="16" version="1.1"><defs id="defs4"><linearGradient id="linearGradient4548"><stop style="stop-color:#000;stop-opacity:1" id="stop4550" offset="0"/><stop id="stop4552" offset=".5" style="stop-color:#fff;stop-opacity:1"/><stop style="stop-color:#000;stop-opacity:1" id="stop4554" offset="1"/></linearGradient><linearGradient id="linearGradient4507"><stop id="stop4509" offset="0" style="stop-color:#000;stop-opacity:1"/><stop style="stop-color:#fff;stop-opacity:1" id="stop4513" offset=".5"/><stop id="stop4511" offset="1" style="stop-color:#000;stop-opacity:1"/></linearGradient><linearGradient id="linearGradient3831"><stop style="stop-color:#000;stop-opacity:1" id="stop3833" offset="0"/><stop style="stop-color:#fff;stop-opacity:1" id="stop3835" offset="1"/></linearGradient><linearGradient id="linearGradient4505" x1="16" x2="16" y1="1025.867" y2="1029.48" gradientTransform="matrix(0.48427066,0,0,0.54435968,0.27944703,483.26658)" gradientUnits="userSpaceOnUse" xlink:href="#linearGradient4507"/><linearGradient id="linearGradient4546" x1="17" x2="17" y1="1043.472" y2="1040.536" gradientTransform="matrix(0.5297937,0,0,0.42583335,-0.44892098,605.26716)" gradientUnits="userSpaceOnUse" xlink:href="#linearGradient4548"/><linearGradient id="linearGradient4564" x1=".5" x2="3" y1="6" y2="8.5" gradientUnits="userSpaceOnUse" xlink:href="#linearGradient3831"/><linearGradient id="linearGradient4590" x1=".5" x2="3" y1="6" y2="8.5" gradientTransform="matrix(0.92307691,0,0,0.92307691,0.07692285,0.49993263)" gradientUnits="userSpaceOnUse" xlink:href="#linearGradient3831"/><linearGradient id="linearGradient4596" x1=".5" x2="3" y1="6" y2="8.5" gradientTransform="matrix(0.92307691,0,0,0.92307691,0.07692519,0.49983516)" gradientUnits="userSpaceOnUse" xlink:href="#linearGradient3831"/><linearGradient id="linearGradient4789" x1=".5" x2="3" y1="6" y2="8.5" gradientTransform="translate(-0.24999993,0.24992733)" gradientUnits="userSpaceOnUse" xlink:href="#linearGradient3831"/></defs><metadata id="metadata7"/><g id="layer1" transform="translate(0,-1036.3622)"><path style="fill:url(#linearGradient4505);fill-opacity:1;stroke:#000;stroke-width:.5;stroke-miterlimit:4;stroke-opacity:1;stroke-dasharray:none" id="path2993" d="m 1.8381933,1041.6195 c -1.19578333,0.054 -1.55874625,0.3448 -1.55874625,1.3778 l 0,1.7864 c 0,1.3239 1.22581015,1.3268 1.22581015,1.3268 l 0.559938,0 11.9251658,0 0.559938,0 c 0,0 1.22581,-0.013 1.22581,-1.3268 l 0,-1.7864 c 0,-1.041 -0.37103,-1.3268 -1.589013,-1.3778 l -0.529671,0 -11.2592934,0 c -0.1949779,0 -0.3663403,-0.013 -0.5296714,0 -0.00934,4e-4 -0.021033,-4e-4 -0.030266,0 z"/><path style="fill:url(#linearGradient4546);fill-opacity:1;stroke:#000;stroke-width:.5;stroke-linecap:butt;stroke-linejoin:miter;stroke-miterlimit:4;stroke-opacity:1;stroke-dasharray:none" id="path4517" d="m 7.4106193,1044.8347 0,2.7775 -0.5297939,0 -3.1787625,1.4076 0.264897,1.0924 3.9734523,0 1.0595878,0 3.973452,0 0.264897,-1.0924 -3.178762,-1.4076 -0.5297931,0 0,-2.7775 -0.5297939,0 -1.0595878,0 z"/><path style="fill:url(#linearGradient4789);fill-opacity:1;stroke:none" id="path4787" d="m 4,6.5 a 3,3 0 1 1 -6,0 3,3 0 1 1 6,0 z" transform="matrix(0.5,0,0,0.5,3,1040.6122)"/><path id="path4586" d="m 4,6.5 a 3,3 0 1 1 -6,0 3,3 0 1 1 6,0 z" transform="matrix(0.5,0,0,0.5,8,1040.6122)" style="fill:url(#linearGradient4590);fill-opacity:1;stroke:none"/><path style="fill:url(#linearGradient4596);fill-opacity:1;stroke:none" id="path4592" d="m 4,6.5 a 3,3 0 1 1 -6,0 3,3 0 1 1 6,0 z" transform="matrix(0.5,0,0,0.5,11,1040.6122)"/></g></svg>